<!-- Created with Inkscape (http://www.inkscape.org/) -->
<svg width="1140.5" height="428.19" version="1.1" viewBox="0 0 1140.5 428.19" xmlns="http://www.w3.org/2000/svg" xmlns:xlink="http://www.w3.org/1999/xlink">
 <defs>
  <clipPath id="clipPath3">
   <path transform="matrix(0 -1 -1 0 456.92 147.09)" d="m144 49h154v409h-154z"/>
  </clipPath>
  <clipPath id="clipPath6">
   <path transform="matrix(0 -1 -1 0 456.92 287.77)" d="m285 49h294v409h-294z"/>
  </clipPath>
  <clipPath id="clipPath9">
   <path transform="matrix(0 -1 -1 0 456.92 347.16)" d="m344 49h354v409h-354z"/>
  </clipPath>
  <clipPath id="clipPath12">
   <path transform="matrix(0 -1 -1 0 456.92 491.41)" d="m488 49h472v409h-472z"/>
  </clipPath>
  <clipPath id="clipPath16">
   <path transform="matrix(1 0 0 -1 -186.76 408.1)" d="m0 0h960v540h-960z"/>
  </clipPath>
  <clipPath id="clipPath17">
   <path transform="matrix(1 0 0 -1 -261.41 408.1)" d="m0 0h960v540h-960z"/>
  </clipPath>
  <clipPath id="clipPath20">
   <path transform="matrix(1 0 0 -1 -411.5 408.1)" d="m0 0h960v540h-960z"/>
  </clipPath>
  <clipPath id="clipPath21">
   <path transform="matrix(1 0 0 -1 -452.72 408.1)" d="m0 0h960v540h-960z"/>
  </clipPath>
  <clipPath id="clipPath22">
   <path transform="matrix(1 0 0 -1 -487.7 408.1)" d="m0 0h960v540h-960z"/>
  </clipPath>
  <clipPath id="clipPath23">
   <path transform="matrix(1 0 0 -1 -553.78 408.1)" d="m0 0h960v540h-960z"/>
  </clipPath>
  <clipPath id="clipPath24">
   <path transform="matrix(1 0 0 -1 -595.01 408.1)" d="m0 0h960v540h-960z"/>
  </clipPath>
  <clipPath id="clipPath25">
   <path transform="matrix(1 0 0 -1 -612.39 408.1)" d="m0 0h960v540h-960z"/>
  </clipPath>
  <clipPath id="clipPath27">
   <path transform="matrix(1 0 0 -1 -127.07 369.5)" d="m0 0h960v540h-960z"/>
  </clipPath>
  <clipPath id="clipPath29">
   <path transform="matrix(1 0 0 -1 -297.53 370.5)" d="m0 0h960v540h-960z"/>
  </clipPath>
  <clipPath id="clipPath31">
   <path transform="matrix(1 0 0 -1 -714.49 369.17)" d="m0 0h960v540h-960z"/>
  </clipPath>
  <clipPath id="clipPath33">
   <path transform="matrix(1 0 0 -1 -45.604 389.96)" d="m0 0h960v540h-960z"/>
  </clipPath>
  <clipPath id="clipPath35">
   <path transform="matrix(1 0 0 -1 -45.604 239.03)" d="m0 0h960v540h-960z"/>
  </clipPath>
  <clipPath id="clipPath37">
   <path transform="matrix(1 .0007284 .0007284 -1 -145.41 386.69)" d="m0 0h960v540h-960z"/>
  </clipPath>
  <clipPath id="clipPath39">
   <path transform="matrix(1 0 0 -1 -352.02 253.35)" d="m0 0h960v540h-960z"/>
  </clipPath>
  <clipPath id="clipPath40">
   <path transform="matrix(1 0 0 -1 -426.67 253.35)" d="m0 0h960v540h-960z"/>
  </clipPath>
  <clipPath id="clipPath42">
   <path transform="matrix(1 0 0 -1 -560.64 255.35)" d="m0 0h960v540h-960z"/>
  </clipPath>
  <clipPath id="clipPath43">
   <path transform="matrix(1 0 0 -1 -601.85 255.35)" d="m0 0h960v540h-960z"/>
  </clipPath>
  <clipPath id="clipPath44">
   <path transform="matrix(1 0 0 -1 -636.84 255.35)" d="m0 0h960v540h-960z"/>
  </clipPath>
  <clipPath id="clipPath45">
   <path transform="matrix(1 0 0 -1 -702.92 255.35)" d="m0 0h960v540h-960z"/>
  </clipPath>
  <clipPath id="clipPath46">
   <path transform="matrix(1 0 0 -1 -744.15 255.35)" d="m0 0h960v540h-960z"/>
  </clipPath>
  <clipPath id="clipPath47">
   <path transform="matrix(1 0 0 -1 -761.52 255.35)" d="m0 0h960v540h-960z"/>
  </clipPath>
  <clipPath id="clipPath49">
   <path transform="matrix(1 0 0 -1 -264.59 216.59)" d="m0 0h960v540h-960z"/>
  </clipPath>
  <clipPath id="clipPath51">
   <path transform="matrix(1 0 0 -1 -443.62 216.22)" d="m0 0h960v540h-960z"/>
  </clipPath>
  <clipPath id="clipPath53">
   <path transform="matrix(1 0 0 -1 -859.4 217.22)" d="m0 0h960v540h-960z"/>
  </clipPath>
  <clipPath id="clipPath55">
   <path transform="matrix(.99999 -.0036881 -.0036881 -.99999 -149.19 308.45)" d="m0 0h960v540h-960z"/>
  </clipPath>
  <clipPath id="clipPath59">
   <path transform="matrix(1 0 0 -1 -350.68 307.97)" d="m0 0h960v540h-960z"/>
  </clipPath>
  <clipPath id="clipPath62">
   <path transform="matrix(1 0 0 -1 -155.34 321.46)" d="m0 0h960v540h-960z"/>
  </clipPath>
  <clipPath id="clipPath63">
   <path transform="matrix(1 0 0 -1 -233.11 321.46)" d="m0 0h960v540h-960z"/>
  </clipPath>
  <clipPath id="clipPath67">
   <path transform="matrix(1 .001685 .001685 -1 -145.84 233.61)" d="m0 0h960v540h-960z"/>
  </clipPath>
  <clipPath id="clipPath69">
   <path transform="matrix(1 0 0 -1 -373.24 319.46)" d="m0 0h960v540h-960z"/>
  </clipPath>
  <clipPath id="clipPath70">
   <path transform="matrix(1 0 0 -1 -414.96 319.46)" d="m0 0h960v540h-960z"/>
  </clipPath>
 </defs>
 <g transform="translate(-11.924 -14.529)">
  <g fill="none" stroke-linejoin="round" stroke-width="3">
   <path transform="matrix(0 1.3333 -1.3333 0 145.22 14.529)" d="m0 0h321.14" clip-path="url(#clipPath3)" opacity=".5" stroke="#ffa319"/>
   <path transform="matrix(0 1.3333 -1.3333 0 332.79 14.529)" d="m0 0h321.14" clip-path="url(#clipPath6)" opacity=".5" stroke="#ffa319"/>
   <path transform="matrix(0 1.3333 -1.3333 0 411.97 14.529)" d="m0 0h321.14" clip-path="url(#clipPath9)" opacity=".5" stroke="#a41623"/>
   <path transform="matrix(0 1.3333 -1.3333 0 604.31 14.529)" d="m0 0h321.14" clip-path="url(#clipPath12)" opacity=".5" stroke="#a41623"/>
  </g>
  <path d="m142.59 106.39h268.5v-16.63h-268.5z" fill="#6495ed"/>
  <text transform="matrix(1.3333 0 0 1.3333 198.11 79.627)" clip-path="url(#clipPath16)" xml:space="preserve"><tspan x="0" y="0" fill="#6495ed" font-family="'Helvetica Neue'" font-size="14px" font-weight="700">Incubation</tspan></text>
  <text transform="matrix(1.3333 0 0 1.3333 297.64 79.627)" clip-path="url(#clipPath17)" xml:space="preserve"><tspan x="0" y="0" fill="#6495ed" font-family="'Helvetica Neue'" font-size="14px" font-weight="700">period</tspan></text>
  <path d="m411.09 106.26h519v-16.5h-519z" fill="#06a6d0"/>
  <text transform="matrix(1.3333 0 0 1.3333 497.76 79.626)" clip-path="url(#clipPath20)" xml:space="preserve"><tspan x="0" y="0" fill="#06a6d0" font-family="'Helvetica Neue'" font-size="14px" font-weight="700">Delay</tspan></text>
  <text transform="matrix(1.3333 0 0 1.3333 552.72 79.626)" clip-path="url(#clipPath21)" xml:space="preserve"><tspan x="0" y="0" dx="0 0 -0.252" fill="#06a6d0" font-family="'Helvetica Neue'" font-size="14px" font-weight="700">from</tspan></text>
  <text transform="matrix(1.3333 0 0 1.3333 599.37 79.626)" clip-path="url(#clipPath22)" xml:space="preserve"><tspan x="0" y="0" fill="#06a6d0" font-family="'Helvetica Neue'" font-size="14px" font-weight="700">symptom</tspan></text>
  <text transform="matrix(1.3333 0 0 1.3333 687.47 79.626)" clip-path="url(#clipPath23)" xml:space="preserve"><tspan x="0" y="0" fill="#06a6d0" font-family="'Helvetica Neue'" font-size="14px" font-weight="700">onset</tspan></text>
  <text transform="matrix(1.3333 0 0 1.3333 742.45 79.626)" clip-path="url(#clipPath24)" xml:space="preserve"><tspan x="0" y="0" fill="#06a6d0" font-family="'Helvetica Neue'" font-size="14px" font-weight="700">to</tspan></text>
  <text transform="matrix(1.3333 0 0 1.3333 765.61 79.626)" clip-path="url(#clipPath25)" xml:space="preserve"><tspan x="0" y="0" dx="0 -0.252" fill="#06a6d0" font-family="'Helvetica Neue'" font-size="14px" font-weight="700">report</tspan></text>
  <text transform="matrix(1.3333 0 0 1.3333 118.52 131.09)" clip-path="url(#clipPath27)" xml:space="preserve"><tspan x="0" y="0" fill="#000000" font-family="'Helvetica Neue'" font-size="14px">Infection</tspan></text>
  <text transform="matrix(1.3333 0 0 1.3333 345.8 129.75)" clip-path="url(#clipPath29)" xml:space="preserve"><tspan x="0" y="0" fill="#000000" font-family="'Helvetica Neue'" font-size="14px">Symptom onset</tspan></text>
  <text transform="matrix(1.3333 0 0 1.3333 901.75 131.53)" clip-path="url(#clipPath31)" xml:space="preserve"><tspan x="0" y="0" fill="#000000" font-family="'Helvetica Neue'" font-size="14px">Report</tspan></text>
  <text transform="matrix(1.3333 0 0 1.3333 9.9004 103.81)" clip-path="url(#clipPath33)" xml:space="preserve"><tspan x="0" y="0" fill="#000000" font-family="'Helvetica Neue'" font-size="22px" font-weight="700">Infector</tspan></text>
  <text transform="matrix(1.3333 0 0 1.3333 9.9004 305.06)" clip-path="url(#clipPath35)" xml:space="preserve"><tspan x="0" y="0" fill="#000000" font-family="'Helvetica Neue'" font-size="22px" font-weight="700">Infectee</tspan></text>
  <path transform="matrix(1.3333 -.0009712 .0009712 1.3333 142.59 108.03)" d="m0 0h743.69" clip-path="url(#clipPath37)" fill="none" stroke="#00162e" stroke-miterlimit="8" stroke-width="4.5"/>
  <path d="m1134.6 98.423 17.78 8.8737-17.767 8.8996-0.013-17.773z" fill="#00162e"/>
  <text transform="matrix(1.3333 0 0 1.3333 418.45 285.95)" clip-path="url(#clipPath39)" xml:space="preserve"><tspan x="0" y="0" fill="#6495ed" font-family="'Helvetica Neue'" font-size="14px" font-weight="700">Incubation</tspan></text>
  <text transform="matrix(1.3333 0 0 1.3333 517.99 285.95)" clip-path="url(#clipPath40)" xml:space="preserve"><tspan x="0" y="0" fill="#6495ed" font-family="'Helvetica Neue'" font-size="14px" font-weight="700">period</tspan></text>
  <text transform="matrix(1.3333 0 0 1.3333 696.61 283.29)" clip-path="url(#clipPath42)" xml:space="preserve"><tspan x="0" y="0" fill="#06a6d0" font-family="'Helvetica Neue'" font-size="14px" font-weight="700">Delay</tspan></text>
  <text transform="matrix(1.3333 0 0 1.3333 751.57 283.29)" clip-path="url(#clipPath43)" xml:space="preserve"><tspan x="0" y="0" dx="0 0 -0.252" fill="#06a6d0" font-family="'Helvetica Neue'" font-size="14px" font-weight="700">from</tspan></text>
  <text transform="matrix(1.3333 0 0 1.3333 798.21 283.29)" clip-path="url(#clipPath44)" xml:space="preserve"><tspan x="0" y="0" fill="#06a6d0" font-family="'Helvetica Neue'" font-size="14px" font-weight="700">symptom</tspan></text>
  <text transform="matrix(1.3333 0 0 1.3333 886.32 283.29)" clip-path="url(#clipPath45)" xml:space="preserve"><tspan x="0" y="0" fill="#06a6d0" font-family="'Helvetica Neue'" font-size="14px" font-weight="700">onset</tspan></text>
  <text transform="matrix(1.3333 0 0 1.3333 941.29 283.29)" clip-path="url(#clipPath46)" xml:space="preserve"><tspan x="0" y="0" fill="#06a6d0" font-family="'Helvetica Neue'" font-size="14px" font-weight="700">to</tspan></text>
  <text transform="matrix(1.3333 0 0 1.3333 964.46 283.29)" clip-path="url(#clipPath47)" xml:space="preserve"><tspan x="0" y="0" dx="0 -0.252" fill="#06a6d0" font-family="'Helvetica Neue'" font-size="14px" font-weight="700">report</tspan></text>
  <text transform="matrix(1.3333 0 0 1.3333 301.89 334.97)" clip-path="url(#clipPath49)" xml:space="preserve"><tspan x="0" y="0" fill="#000000" font-family="'Helvetica Neue'" font-size="14px">Infection</tspan></text>
  <text transform="matrix(1.3333 0 0 1.3333 540.58 335.46)" clip-path="url(#clipPath51)" xml:space="preserve"><tspan x="0" y="0" fill="#000000" font-family="'Helvetica Neue'" font-size="14px">Symptom onset</tspan></text>
  <text transform="matrix(1.3333 0 0 1.3333 1095 334.13)" clip-path="url(#clipPath53)" xml:space="preserve"><tspan x="0" y="0" fill="#000000" font-family="'Helvetica Neue'" font-size="14px">Report</tspan></text>
  <path transform="matrix(1.3333 .0049174 -.0049174 1.3333 149.53 213.22)" d="m13.663 0h107.18" clip-path="url(#clipPath55)" fill="none" stroke="#ffa319" stroke-miterlimit="8" stroke-width="4.5"/>
  <path d="m311.12 204.93 17.741 8.9521-17.806 8.8211z" fill="#ffa319"/>
  <path d="m167.27 222.17-17.741-8.9521 17.806-8.8211z" fill="#ffa319"/>
  <path transform="matrix(1.3333 0 0 1.3333 416.66 213.14)" d="m13.663 0h108.67" clip-path="url(#clipPath59)" fill="none" stroke="#a41623" stroke-miterlimit="8" stroke-width="4.5"/>
  <path d="m580.21 204.25 17.773 8.8867-17.773 8.8867z" fill="#a41623"/>
  <path d="m434.44 222.02-17.773-8.8867 17.773-8.8867z" fill="#a41623"/>
  <text transform="matrix(1.3333 0 0 1.3333 156.22 195.14)" clip-path="url(#clipPath62)" xml:space="preserve"><tspan x="0" y="0" fill="#ffa319" font-family="'Helvetica Neue'" font-size="14px" font-weight="700">Generation</tspan></text>
  <text transform="matrix(1.3333 0 0 1.3333 259.91 195.14)" clip-path="url(#clipPath63)" xml:space="preserve"><tspan x="0" y="0" fill="#ffa319" font-family="'Helvetica Neue'" font-size="14px" font-weight="700">interval</tspan></text>
  <path d="m333.25 310.57h271.06v-16.63h-271.06z" fill="#6495ed"/>
  <path d="m604.31 310.44h509.29v-16.504h-509.29z" fill="#06a6d0"/>
  <path transform="matrix(1.3333 -.0022466 .0022466 1.3333 143.02 311.95)" d="m0 0h743.38" clip-path="url(#clipPath67)" fill="none" stroke="#00162e" stroke-miterlimit="8" stroke-width="4.5"/>
  <path d="m1134.6 301.39 17.788 8.8568-17.758 8.9165z" fill="#00162e"/>
  <text transform="matrix(1.3333 0 0 1.3333 446.75 197.81)" clip-path="url(#clipPath69)" xml:space="preserve"><tspan x="0" y="0" fill="#a41723" font-family="'Helvetica Neue'" font-size="14px" font-weight="700">Serial</tspan></text>
  <text transform="matrix(1.3333 0 0 1.3333 502.38 197.81)" clip-path="url(#clipPath70)" xml:space="preserve"><tspan x="0" y="0" fill="#a41723" font-family="'Helvetica Neue'" font-size="14px" font-weight="700">interval</tspan></text>
 </g>
</svg>
