<?xml version="1.0" encoding="UTF-8" standalone="no"?>
<svg
   version="1.1"
   viewBox="0 0 108.70078 504.78745"
   fill="none"
   stroke="none"
   stroke-linecap="square"
   stroke-miterlimit="10"
   id="svg17"
   sodipodi:docname="sir.svg"
   inkscape:version="1.4 (e7c3feb1, 2024-10-09)"
   width="108.70078"
   height="504.78745"
   xmlns:inkscape="http://www.inkscape.org/namespaces/inkscape"
   xmlns:sodipodi="http://sodipodi.sourceforge.net/DTD/sodipodi-0.dtd"
   xmlns="http://www.w3.org/2000/svg"
   xmlns:svg="http://www.w3.org/2000/svg">
  <defs
     id="defs17" />
  <sodipodi:namedview
     id="namedview17"
     pagecolor="#ffffff"
     bordercolor="#000000"
     borderopacity="0.25"
     inkscape:showpageshadow="2"
     inkscape:pageopacity="0.0"
     inkscape:pagecheckerboard="0"
     inkscape:deskcolor="#d1d1d1"
     inkscape:zoom="0.66979167"
     inkscape:cx="381.4619"
     inkscape:cy="240.37325"
     inkscape:window-width="1408"
     inkscape:window-height="759"
     inkscape:window-x="0"
     inkscape:window-y="25"
     inkscape:window-maximized="0"
     inkscape:current-layer="svg17" />
  <path
     fill="#fbfcff"
     d="m 1.5,54.350395 v 0 C 1.5,25.161926 25.161926,1.5 54.350396,1.5 v 0 c 14.0168,0 27.4595,5.56815 37.37086,15.479523 9.911384,9.911373 15.479534,23.354073 15.479534,37.370872 v 0 c 0,29.188466 -23.661934,52.850395 -52.850394,52.850395 v 0 C 25.161926,107.20079 1.5,83.538861 1.5,54.350395 Z"
     fill-rule="evenodd"
     id="path3" />
  <path
     stroke="#6495ed"
     stroke-width="3"
     stroke-linejoin="round"
     stroke-linecap="butt"
     d="m 1.5,54.350395 v 0 C 1.5,25.161926 25.161926,1.5 54.350396,1.5 v 0 c 14.0168,0 27.4595,5.56815 37.37086,15.479523 9.911384,9.911373 15.479534,23.354073 15.479534,37.370872 v 0 c 0,29.188466 -23.661934,52.850395 -52.850394,52.850395 v 0 C 25.161926,107.20079 1.5,83.538861 1.5,54.350395 Z"
     fill-rule="evenodd"
     id="path4" />
  <path
     fill="#a41623"
     d="m 66.416926,63.425391 q 0,3.375 -1.6875,5.765625 -1.67188,2.375005 -4.6875,3.625005 -3.01563,1.25 -7.10938,1.25 -2.15625,0 -4.09375,-0.20313 -1.92187,-0.20312 -3.54687,-0.59375 -1.60938,-0.39062 -2.82813,-0.96875 v -4.25 q 1.95313,0.8125 4.76563,1.5 2.8125,0.6875 5.89062,0.6875 2.85938,0 4.82813,-0.765625 1.98437,-0.765625 3.01562,-2.203125 1.03125,-1.453125 1.03125,-3.484375 0,-1.953125 -0.85937,-3.265625 -0.85938,-1.3125 -2.85938,-2.390625 -1.98437,-1.09375 -5.42187,-2.3125 -2.42188,-0.859375 -4.28125,-1.890625 -1.84375,-1.03125 -3.09375,-2.328125 -1.25,-1.296875 -1.89063,-3.015625 -0.625,-1.71875 -0.625,-3.9375 0,-3.046875 1.54688,-5.21875 1.54687,-2.171875 4.29687,-3.328125 2.75,-1.15625 6.3125,-1.15625 3.04688,0 5.64063,0.578125 2.59375,0.5625 4.75,1.53125 l -1.375,3.796875 q -2.0625,-0.859375 -4.375,-1.421875 -2.29688,-0.578125 -4.75,-0.578125 -2.4375,0 -4.125,0.71875 -1.67188,0.703125 -2.5625,2.015625 -0.89063,1.296875 -0.89063,3.09375 0,2 0.84375,3.328125 0.85938,1.328125 2.71875,2.359375 1.85938,1.03125 4.9375,2.140625 3.35938,1.234375 5.70313,2.609375 2.34375,1.359375 3.5625,3.328125 1.21875,1.953125 1.21875,4.984375 z"
     fill-rule="nonzero"
     id="path5" />
  <path
     fill="#fbfcff"
     d="m 1.5,252.39369 v 0 c 0,-29.18846 23.661926,-52.85039 52.850396,-52.85039 v 0 c 14.0168,0 27.4595,5.56816 37.37086,15.47952 9.911384,9.91138 15.479534,23.35408 15.479534,37.37087 v 0 c 0,29.18848 -23.661934,52.8504 -52.850394,52.8504 v 0 C 25.161926,305.24409 1.5,281.58217 1.5,252.39369 Z"
     fill-rule="evenodd"
     id="path6" />
  <path
     stroke="#6495ed"
     stroke-width="3"
     stroke-linejoin="round"
     stroke-linecap="butt"
     d="m 1.5,252.39369 v 0 c 0,-29.18846 23.661926,-52.85039 52.850396,-52.85039 v 0 c 14.0168,0 27.4595,5.56816 37.37086,15.47952 9.911384,9.91138 15.479534,23.35408 15.479534,37.37087 v 0 c 0,29.18848 -23.661934,52.8504 -52.850394,52.8504 v 0 C 25.161926,305.24409 1.5,281.58217 1.5,252.39369 Z"
     fill-rule="evenodd"
     id="path7" />
  <path
     fill="#a41623"
     d="m 52.106326,271.5937 v -38.0625 h 4.4375 v 38.0625 z"
     fill-rule="nonzero"
     id="path8" />
  <path
     fill="#fbfcff"
     d="m 1.5,450.437 v 0 c 0,-29.18845 23.661926,-52.85037 52.850396,-52.85037 v 0 c 14.0168,0 27.4595,5.56814 37.37086,15.47952 9.911384,9.91135 15.479534,23.35407 15.479534,37.37085 v 0 c 0,29.18848 -23.661934,52.85043 -52.850394,52.85043 v 0 C 25.161926,503.28743 1.5,479.62548 1.5,450.437 Z"
     fill-rule="evenodd"
     id="path9" />
  <path
     stroke="#6495ed"
     stroke-width="3"
     stroke-linejoin="round"
     stroke-linecap="butt"
     d="m 1.5,450.437 v 0 c 0,-29.18845 23.661926,-52.85037 52.850396,-52.85037 v 0 c 14.0168,0 27.4595,5.56814 37.37086,15.47952 9.911384,9.91135 15.479534,23.35407 15.479534,37.37085 v 0 c 0,29.18848 -23.661934,52.85043 -52.850394,52.85043 v 0 C 25.161926,503.28743 1.5,479.62548 1.5,450.437 Z"
     fill-rule="evenodd"
     id="path10" />
  <path
     fill="#a41623"
     d="m 53.393666,431.57452 q 4.6875,0 7.73437,1.15625 3.0625,1.15625 4.5625,3.53125 1.51563,2.35937 1.51563,6.03125 0,3.01562 -1.09375,5.04687 -1.09375,2.01563 -2.85938,3.26563 -1.76562,1.25 -3.76562,1.92187 l 10.4375,17.10938 h -5.15625 l -9.32813,-15.89063 h -7.90625 v 15.89063 h -4.4375 v -38.0625 z m -0.26563,3.82812 h -5.59375 v 14.59375 h 6.03125 q 4.67188,0 6.85938,-1.89062 2.20312,-1.90625 2.20312,-5.59375 0,-3.89063 -2.32812,-5.5 -2.32813,-1.60938 -7.17188,-1.60938 z"
     fill-rule="nonzero"
     id="path11" />
  <path
     fill="#000000"
     fill-opacity="0"
     d="m 54.350396,107.20079 v 92.34645"
     fill-rule="evenodd"
     id="path12" />
  <path
     stroke="#002145"
     stroke-width="4"
     stroke-linejoin="round"
     stroke-linecap="butt"
     d="m 54.350396,107.20079 v 68.34645"
     fill-rule="evenodd"
     id="path13" />
  <path
     fill="#002145"
     stroke="#002145"
     stroke-width="4"
     stroke-linecap="butt"
     d="m 47.743466,175.54724 6.60693,18.15239 6.60694,-18.15239 z"
     fill-rule="evenodd"
     id="path14" />
  <path
     fill="#000000"
     fill-opacity="0"
     d="m 54.350396,305.24409 v 92.34647"
     fill-rule="evenodd"
     id="path15" />
  <path
     stroke="#002145"
     stroke-width="4"
     stroke-linejoin="round"
     stroke-linecap="butt"
     d="m 54.350396,305.24409 v 68.34647"
     fill-rule="evenodd"
     id="path16" />
  <path
     fill="#002145"
     stroke="#002145"
     stroke-width="4"
     stroke-linecap="butt"
     d="m 47.743466,373.59056 6.60693,18.15237 6.60694,-18.15237 z"
     fill-rule="evenodd"
     id="path17" />
</svg>
